# xmcd CD database file
#
# Track frame offsets:
#	150
#	810
#	15657
#	45807
#	59112
#	68155
#	92955
#	117180
#	141260
#	153375
#	176335
#	179387
#	198867
#	217005
#	229730
#
# Disc length: 3105 seconds
#
# Revision: 0
# Processed by: cddbd v1.5.2PL0 Copyright (c) Steve Scherf et al.
# Submitted via: CDex 1.70beta2
#
DISCID=c20c1f0f
DTITLE=The Dirty Dozen Brass Band - Jelly
DYEAR=1993
DGENRE=Jazz
TTITLE0=Jelly's Jazz
TTITLE1=Georgia Swing
TTITLE2=Freakish
TTITLE3=Sidewalk Blues
TTITLE4=The Red Light District
TTITLE5=Milenberg Joys
TTITLE6=Medley: Mr. Ray J - Dead Man Blues
TTITLE7=Jungle Blues
TTITLE8=Shoe Shiner's Drag
TTITLE9=Wolverine Blues
TTITLE10=Jell Roll's Misgiving
TTITLE11=The Pearls
TTITLE12=New Orleans Blues
TTITLE13=Kansas City Stomp
TTITLE14=Medley: The One And Only - Georgia Swing Reprise
EXTD=YEAR: 1993
EXTT0=
EXTT1=
EXTT2=
EXTT3=
EXTT4=
EXTT5=
EXTT6=
EXTT7=
EXTT8=
EXTT9=
EXTT10=
EXTT11=
EXTT12=
EXTT13=
EXTT14=
PLAYORDER=
